<?xml version="1.0" encoding="iso-8859-1"?>
<!-- Generator: Adobe Illustrator 16.0.0, SVG Export Plug-In . SVG Version: 6.00 Build 0)  -->
<!DOCTYPE svg PUBLIC "-//W3C//DTD SVG 1.1//EN" "http://www.w3.org/Graphics/SVG/1.1/DTD/svg11.dtd">
<svg version="1.1" id="Capa_1" xmlns="http://www.w3.org/2000/svg" xmlns:xlink="http://www.w3.org/1999/xlink" x="0px" y="0px"
	 width="306.213px" height="306.213px" viewBox="0 0 306.213 306.213" style="enable-background:new 0 0 306.213 306.213;"
	 xml:space="preserve">
<g>
	<g>
		<path d="M250.709,193.022l-55.805-2.931l-30.587,51.739c-3.081,5.21-6.985,8.083-10.999,8.083c-4.062,0-7.969-2.94-10.999-8.279
			l-29.352-51.688l-57.469,3.076c-15.366,0.803-33.536,6.954-41.363,14.002C6.208,214.159,0,231.91,0,247.439v17.232
			c0,16.078,13.087,29.163,29.163,29.163H277.05c16.078,0,29.163-13.085,29.163-29.163v-17.232c0-15.529-6.208-33.28-14.136-40.415
			C284.237,199.982,266.072,193.83,250.709,193.022z"/>
		<path d="M147.763,234.013c2.338,5.375,6.468,5.53,9.215,0.357l9.344-17.591l-10.791-11.526l8.176-8.492l-10.604-6.275
			l-10.382,5.965l7.917,8.632l-10.786,10.807L147.763,234.013z"/>
		<path d="M154.427,12.378c-45.319,0-82.187,36.869-82.187,82.187c0,45.319,36.868,82.188,82.187,82.188
			c25.818,0,48.861-11.993,63.945-30.665l58.274,41.658c7.146,5.105,16.119,2.879,20.05-4.981l6.503-13.033
			c3.92-7.86,0.321-16.415-8.036-19.107l-63.458-28.337c3.122-8.681,4.914-17.986,4.914-27.721
			C236.614,49.247,199.746,12.378,154.427,12.378z M154.427,155.543c-33.621,0-60.978-27.355-60.978-60.978
			c0-33.621,27.356-60.978,60.978-60.978c33.622,0,60.978,27.356,60.978,60.978C215.404,128.188,188.049,155.543,154.427,155.543z"
			/>
		<path d="M154.427,42.438c-28.744,0-52.128,23.384-52.128,52.128c0,1.463,1.188,2.651,2.651,2.651s2.651-1.188,2.651-2.651
			c0-25.818,21.002-46.825,46.826-46.825c1.463,0,2.651-1.188,2.651-2.651S155.89,42.438,154.427,42.438z"/>
	</g>
</g>
<g>
</g>
<g>
</g>
<g>
</g>
<g>
</g>
<g>
</g>
<g>
</g>
<g>
</g>
<g>
</g>
<g>
</g>
<g>
</g>
<g>
</g>
<g>
</g>
<g>
</g>
<g>
</g>
<g>
</g>
</svg>
